<?xml version="1.0" encoding="UTF-8" standalone="no"?>
<svg
   xmlns:dc="http://purl.org/dc/elements/1.1/"
   xmlns:cc="http://creativecommons.org/ns#"
   xmlns:rdf="http://www.w3.org/1999/02/22-rdf-syntax-ns#"
   xmlns:svg="http://www.w3.org/2000/svg"
   xmlns="http://www.w3.org/2000/svg"
   xmlns:sodipodi="http://sodipodi.sourceforge.net/DTD/sodipodi-0.dtd"
   xmlns:inkscape="http://www.inkscape.org/namespaces/inkscape"
   inkscape:version="1.0alpha2 (883c7bc, 2019-06-02)"
   height="128"
   width="128"
   sodipodi:docname="facebook.svg"
   id="svg839"
   xml:space="preserve"
   enable-background="new 0 0 100 100"
   viewBox="0 0 128 128"
   y="0px"
   x="0px"
   version="1.1">
  <metadata
     id="metadata845">
    <rdf:RDF>
      <cc:Work
         rdf:about="">
        <dc:format>image/svg+xml</dc:format>
        <dc:type
           rdf:resource="http://purl.org/dc/dcmitype/StillImage" />
        <dc:title></dc:title>
      </cc:Work>
    </rdf:RDF>
  </metadata>
  <defs
     id="defs843" />
  <sodipodi:namedview
     inkscape:current-layer="svg839"
     inkscape:window-maximized="0"
     inkscape:window-y="25"
     inkscape:window-x="0"
     inkscape:cy="64"
     inkscape:cx="64"
     inkscape:zoom="5.546875"
     showgrid="false"
     id="namedview841"
     inkscape:window-height="945"
     inkscape:window-width="1435"
     inkscape:pageshadow="2"
     inkscape:pageopacity="0"
     guidetolerance="10"
     gridtolerance="10"
     objecttolerance="10"
     borderopacity="1"
     inkscape:document-rotation="0"
     bordercolor="#666666"
     pagecolor="#ffffff" />
  <circle
     r="60"
     cy="64"
     cx="64"
     id="path847"
     style="fill:#808080;stroke:#000000;stroke-width:2.1131;stroke-linecap:round;stroke-linejoin:round;stroke-miterlimit:4;stroke-dasharray:none;stroke-opacity:1;paint-order:fill markers stroke;opacity:0.1" />
  <path
     inkscape:connector-curvature="0"
     d="m 74.520447,20.114849 c -0.371891,0.003 -0.689192,0.01184 -0.935692,0.0262 -0.991243,0.05744 -2.477046,0.210917 -3.302121,0.341121 -7.189064,1.134512 -12.66246,5.814579 -14.713459,12.581282 -0.888484,2.931295 -0.941297,3.554112 -1.024011,12.031184 l -0.07712,7.905375 h -6.538959 -6.539281 v 7.864412 7.864427 h 6.553681 6.553679 v 19.579109 19.579127 h 8.11018 8.110177 V 88.307963 68.728854 h 6.211597 6.211595 l 0.09888,-0.614408 C 83.486236,66.581254 85.135618,53.80149 85.135618,53.4237 v -0.423685 h -7.209049 -7.209047 v -6.316563 c 0,-6.965391 0.08622,-7.788614 0.978252,-9.350511 0.549143,-0.96151 1.604501,-1.741785 2.864675,-2.117784 1.355183,-0.40435 3.537561,-0.559558 7.912736,-0.562564 l 4.137011,-0.003 v -6.936572 -6.936716 l -1.761303,-0.190724 c -2.443908,-0.264671 -7.725204,-0.4943 -10.328445,-0.471043 z"
     style="opacity:1;fill:#808080;fill-opacity:1;stroke:none;stroke-width:3.08584;stroke-linecap:round;stroke-linejoin:round;stroke-miterlimit:4;stroke-dasharray:none;stroke-opacity:1;paint-order:fill markers stroke"
     id="rect955" />
</svg>
