<?xml version="1.0" encoding="UTF-8" standalone="no"?>
<svg
   xmlns:dc="http://purl.org/dc/elements/1.1/"
   xmlns:cc="http://creativecommons.org/ns#"
   xmlns:rdf="http://www.w3.org/1999/02/22-rdf-syntax-ns#"
   xmlns:svg="http://www.w3.org/2000/svg"
   xmlns="http://www.w3.org/2000/svg"
   xmlns:sodipodi="http://sodipodi.sourceforge.net/DTD/sodipodi-0.dtd"
   xmlns:inkscape="http://www.inkscape.org/namespaces/inkscape"
   inkscape:version="1.0alpha2 (883c7bc, 2019-06-02)"
   height="128"
   width="128"
   sodipodi:docname="join.svg"
   id="svg839"
   xml:space="preserve"
   enable-background="new 0 0 100 100"
   viewBox="0 0 128 128"
   y="0px"
   x="0px"
   version="1.1">
  <metadata
     id="metadata845">
    <rdf:RDF>
      <cc:Work
         rdf:about="">
        <dc:format>image/svg+xml</dc:format>
        <dc:type
           rdf:resource="http://purl.org/dc/dcmitype/StillImage" />
        <dc:title></dc:title>
      </cc:Work>
    </rdf:RDF>
  </metadata>
  <defs
     id="defs843" />
  <sodipodi:namedview
     inkscape:current-layer="svg839"
     inkscape:window-maximized="0"
     inkscape:window-y="25"
     inkscape:window-x="0"
     inkscape:cy="64"
     inkscape:cx="64"
     inkscape:zoom="5.546875"
     showgrid="false"
     id="namedview841"
     inkscape:window-height="945"
     inkscape:window-width="1435"
     inkscape:pageshadow="2"
     inkscape:pageopacity="0"
     guidetolerance="10"
     gridtolerance="10"
     objecttolerance="10"
     borderopacity="1"
     inkscape:document-rotation="0"
     bordercolor="#666666"
     pagecolor="#ffffff" />
  <path
     style="fill:#808080;stroke-width:1.25"
     inkscape:connector-curvature="0"
     id="path833"
     d="m 63.999998,13.999998 -13.125,22.749999 h 6.875 v 2.250001 c 0,9.875 -4.750001,14.75 -10.75,20.875 -6.75,6.750001 -14.250001,14.375 -14.250001,29.125 v 1.625001 c -3.75,2.124999 -6.25,6.250007 -6.25,10.874991 0,6.875 5.625,12.50001 12.5,12.50001 6.875,0 12.500001,-5.62501 12.500001,-12.50001 0,-4.624984 -2.5,-8.624991 -6.25,-10.874991 v -1.625001 c 0,-9.625 4.75,-14.374999 10.625,-20.375 2.75,-2.75 5.625,-5.75 8.25,-9.5 2.375,3.375 5.25,6.25 7.875,9 6,6.125 10.750001,11.000001 10.750001,20.875 v 1.625001 c -3.750001,2.124999 -6.250001,6.250007 -6.250001,10.874991 0,6.875 5.625,12.50001 12.500001,12.50001 6.875,0 12.500001,-5.62501 12.500001,-12.50001 0,-4.624984 -2.5,-8.624991 -6.250001,-10.874991 v -1.625001 c 0,-15 -8,-23.125 -14.375001,-29.625 -5.875,-6 -10.625,-10.75 -10.625,-20.375 v -2.250001 h 6.875 z M 46.499997,101.49999 c 0,4.12501 -3.375,7.50001 -7.5,7.50001 -4.124999,0 -7.5,-3.375 -7.5,-7.50001 0,-4.124991 3.375001,-7.49999 7.5,-7.49999 4.125,0 7.5,3.374999 7.5,7.49999 z m 50.000001,0 c 0,4.12501 -3.375,7.50001 -7.499999,7.50001 -4.125001,0 -7.500001,-3.375 -7.500001,-7.50001 0,-4.124991 3.375,-7.49999 7.500001,-7.49999 4.124999,0 7.499999,3.374999 7.499999,7.49999 z" />
  <circle
     r="60"
     cy="64"
     cx="64"
     id="path847"
     style="fill:#808080;stroke:#000000;stroke-width:2.1131;stroke-linecap:round;stroke-linejoin:round;stroke-miterlimit:4;stroke-dasharray:none;stroke-opacity:1;paint-order:fill markers stroke;opacity:0.1" />
</svg>
